<svg width="96" height="96" viewBox="0 0 96 96" fill="none" xmlns="http://www.w3.org/2000/svg">
  <rect x="4" y="4" width="88" height="88" rx="28" fill="#C8613F"/>
  <path d="M48 9L52 16L48 23L44 16L48 9Z" fill="#F8F5ED"/>
  <path d="M48 20V28" stroke="#F8F5ED" stroke-width="5" stroke-linecap="round"/>
  <circle cx="22" cy="50" r="7" fill="#E7CFC1"/>
  <circle cx="74" cy="50" r="7" fill="#E7CFC1"/>
  <path d="M22 50C22 34.536 33.641 23 48 23C62.359 23 74 34.536 74 50V68C74 77.389 66.389 85 57 85H39C29.611 85 22 77.389 22 68V50Z" fill="#F8F5ED"/>
  <rect x="28" y="35" width="40" height="29" rx="14.5" fill="#24231F"/>
  <circle cx="40" cy="48" r="3.5" fill="#F8F5ED"/>
  <circle cx="56" cy="48" r="3.5" fill="#F8F5ED"/>
  <path d="M39 56C41.5 59 44.5 60.5 48 60.5C51.5 60.5 54.5 59 57 56" stroke="#E07A57" stroke-width="3.5" stroke-linecap="round"/>
  <path d="M39 72H57" stroke="#E7CFC1" stroke-width="5" stroke-linecap="round"/>
</svg>
