<svg width="280" height="64" viewBox="0 0 280 64" fill="none" xmlns="http://www.w3.org/2000/svg" role="img" aria-label="Rudo Quest">
  <rect x="4" y="4" width="56" height="56" rx="18" fill="#C8613F"/>
  <path d="M32 7L35 12L32 17L29 12L32 7Z" fill="#F8F5ED"/>
  <path d="M32 15V20" stroke="#F8F5ED" stroke-width="3" stroke-linecap="round"/>
  <circle cx="17" cy="34" r="4" fill="#E7CFC1"/>
  <circle cx="47" cy="34" r="4" fill="#E7CFC1"/>
  <path d="M17 34C17 24.611 23.716 18 32 18C40.284 18 47 24.611 47 34V44C47 50.627 41.627 56 35 56H29C22.373 56 17 50.627 17 44V34Z" fill="#F8F5ED"/>
  <rect x="21" y="25" width="22" height="17" rx="8.5" fill="#24231F"/>
  <circle cx="27.5" cy="32" r="2" fill="#F8F5ED"/>
  <circle cx="36.5" cy="32" r="2" fill="#F8F5ED"/>
  <path d="M27 37C28.5 39 30 40 32 40C34 40 35.5 39 37 37" stroke="#E07A57" stroke-width="2" stroke-linecap="round"/>
  <text x="72" y="43" fill="#24231F" font-family="Bitcount Ink, sans-serif" font-size="32" font-weight="650">Rudo Quest</text>
</svg>
