<svg width="240" height="180" viewBox="0 0 240 180" fill="none" xmlns="http://www.w3.org/2000/svg" role="img" aria-label="Rudo waiting with an empty map">
  <rect x="48" y="24" width="144" height="124" rx="32" fill="#F4E7DF"/>
  <path d="M120 33L126 43L120 53L114 43L120 33Z" fill="#C8613F"/>
  <path d="M120 50V61" stroke="#C8613F" stroke-width="7" stroke-linecap="round"/>
  <circle cx="83" cy="92" r="10" fill="#E7CFC1"/>
  <circle cx="157" cy="92" r="10" fill="#E7CFC1"/>
  <path d="M83 92C83 70.461 99.566 54 120 54C140.434 54 157 70.461 157 92V116C157 129.255 146.255 140 133 140H107C93.745 140 83 129.255 83 116V92Z" fill="#C8613F"/>
  <rect x="92" y="70" width="56" height="41" rx="20.5" fill="#24231F"/>
  <circle cx="108" cy="88" r="4.5" fill="#F8F5ED"/>
  <circle cx="132" cy="88" r="4.5" fill="#F8F5ED"/>
  <path d="M108 100C111.5 104 115.5 106 120 106C124.5 106 128.5 104 132 100" stroke="#E07A57" stroke-width="5" stroke-linecap="round"/>
  <path d="M106 122H134" stroke="#E7CFC1" stroke-width="7" stroke-linecap="round"/>
  <path d="M44 158H196" stroke="#DED8CE" stroke-width="8" stroke-linecap="round"/>
</svg>
